<?xml version="1.0" encoding="utf-8"?>
<!-- Generator: Adobe Illustrator 27.0.1, SVG Export Plug-In . SVG Version: 6.00 Build 0)  -->
<svg version="1.1" id="Слой_1" xmlns="http://www.w3.org/2000/svg" xmlns:xlink="http://www.w3.org/1999/xlink" x="0px" y="0px"
	 viewBox="0 0 726.2 534.3" style="enable-background:new 0 0 726.2 534.3;" xml:space="preserve">
<style type="text/css">
	.st0{fill:#FFFFFF;}
	.st1{fill:#54596E;}
	.st2{fill:#D8D8D8;}
	.st3{fill:#FF927D;}
	.st4{fill:#55A6FF;}
	.st5{fill:#978AC0;}
	.st6{fill:#BFAD88;}
	.st7{fill:#F9595F;}
</style>
<path class="st0" d="M341.2,213.6v300.3c0,7.5-6.1,13.6-13.6,13.6H75.1c-7.5,0-13.6-6.1-13.6-13.6v-348c0-7.5,6.1-13.6,13.6-13.6
	h204.7"/>
<path class="st1" d="M334.4,213.6v300.3c0,3.8-3.1,6.8-6.8,6.8H75.1c-3.8,0-6.8-3.1-6.8-6.8v-348c0-3.8,3.1-6.8,6.8-6.8h204.7
	c3.8,0,6.8-3.1,6.8-6.8c0-3.8-3.1-6.8-6.8-6.8H75.1c-11.3,0-20.5,9.2-20.5,20.5v348c0,11.3,9.2,20.5,20.5,20.5h252.5
	c11.3,0,20.5-9.2,20.5-20.5V213.6c0-3.8-3.1-6.8-6.8-6.8C337.5,206.8,334.4,209.9,334.4,213.6z"/>
<path class="st2" d="M341.2,213.6h-61.4v-61.4L341.2,213.6z"/>
<g>
	<path class="st1" d="M341.2,213.6v-6.8h-54.6v-38.1l49.8,49.8L341.2,213.6v-6.8V213.6l4.8-4.8l-61.4-61.4c-2-2-4.9-2.5-7.4-1.5
		c-2.5,1.1-4.2,3.5-4.2,6.3v61.4c0,1.8,0.7,3.5,2,4.8s3,2,4.8,2h61.4c2.8,0,5.2-1.7,6.3-4.2c1.1-2.5,0.5-5.5-1.5-7.4L341.2,213.6z"
		/>
	<path class="st1" d="M164.6,389.3c9,9.8,23.6,15.4,40.1,15.4c16.3-0.1,30.8-5.6,39.8-15.1c2.6-2.8,2.4-7.1-0.4-9.6
		c-2.8-2.6-7.1-2.4-9.6,0.4c-5.4,6-16.7,10.8-29.8,10.8c-13.3,0.1-24.6-4.9-30-10.9c-2.5-2.8-6.9-3-9.6-0.5
		C162.3,382.2,162.1,386.5,164.6,389.3z"/>
	<path class="st1" d="M157,316c0,7.5-6.1,13.6-13.6,13.6s-13.6-6.1-13.6-13.6s6.1-13.6,13.6-13.6S157,308.5,157,316z"/>
	<path class="st1" d="M279.8,316c0,7.5-6.1,13.6-13.7,13.6c-7.5,0-13.6-6.1-13.6-13.6s6.1-13.6,13.6-13.6
		C273.7,302.4,279.8,308.5,279.8,316z"/>
</g>
<path class="st3" d="M279.8,356.9c0,7.5-6.1,13.6-13.7,13.6c-7.5,0-13.6-6.1-13.6-13.6s6.1-13.7,13.6-13.7
	C273.7,343.3,279.8,349.4,279.8,356.9z"/>
<path class="st3" d="M157,356.9c0,7.5-6.1,13.6-13.6,13.6s-13.6-6.1-13.6-13.6s6.1-13.7,13.6-13.7C150.9,343.3,157,349.4,157,356.9z
	"/>
<path class="st4" d="M207.6,275.1H6.8v-95.5h207.6c4.8,0,7.8,5.2,5.4,9.4l-13.6,34.6c-1,2.4-1,5.1,0,7.6l13.6,34.6
	C222.2,269.8,212.4,275.1,207.6,275.1z"/>
<path class="st1" d="M207.6,275.1v-6.8H13.7v-81.9h200.7v-0.6l-0.4,0.4l0.4,0.2v-0.6l-0.4,0.4l0.4-0.4h-0.5l0.1,0.4l0.4-0.4h-0.5
	h0.5l-0.5-0.3l-0.1,0.3h0.5l-0.5-0.3l-0.4,0.9L199.9,221c-0.8,2-1.2,4.2-1.2,6.3s0.4,4.3,1.2,6.3l13.6,34.6l0.4,0.9l3.6-2.1h-4.1
	c0,0.7,0.2,1.5,0.5,2l3.6-2.1h-4.1h3.5l-3.2-1.5c-0.1,0.2-0.3,0.8-0.3,1.5h3.5l-3.2-1.5l1.5,0.7l-1.4-0.9l-0.1,0.2l1.5,0.7l-1.4-0.9
	l0,0c-0.1,0.2-1.5,1.3-3,2c-1.4,0.7-3.2,1-3.2,1v13.7c2.2,0,4-0.4,5.9-1c2.8-0.9,5.5-2.3,8-4.2c1.2-1,2.4-2.1,3.5-3.6
	c1-1.5,2-3.5,2-6.1c0-1.6-0.5-3.3-1.3-4.7l-5.9,3.4l6.3-2.5l-13.6-34.6l-0.2-1.3l0.2-1.3l13.6-34.6l-6.4-2.5l5.9,3.4
	c1.2-2,1.7-4.3,1.7-6.5c0-3.5-1.4-6.7-3.7-9.1c-2.3-2.4-5.7-4-9.4-4H6.8c-1.8,0-3.6,0.7-4.8,2c-1.3,1.3-2,3-2,4.8V275
	c0,1.8,0.7,3.5,2,4.8s3,2,4.8,2h200.7v-6.7H207.6z"/>
<path class="st4" d="M6.8,275.1h54.6v34.1L6.8,275.1z"/>
<path class="st1" d="M6.8,275.1v6.8h47.8v15l-44.2-27.6L6.8,275.1v6.8V275.1l-3.6,5.8L57.8,315c2.1,1.3,4.8,1.4,6.9,0.2
	c2.2-1.2,3.5-3.5,3.5-6v-34.1c0-1.8-0.7-3.6-2-4.8c-1.3-1.3-3-2-4.8-2H6.8c-3,0-5.7,2-6.6,4.9c-0.8,2.9,0.4,6,2.9,7.7L6.8,275.1z"/>
<path class="st1" d="M41,254.6v-47.8h20.5v13.7H34.1c-3.8,0-6.8,3.1-6.8,6.8c0,3.8,3.1,6.8,6.8,6.8h34.1c1.8,0,3.5-0.7,4.8-2
	s2-3,2-4.8V200c0-1.8-0.7-3.6-2-4.8c-1.3-1.3-3-2-4.8-2H34.1c-1.8,0-3.6,0.7-4.8,2c-1.3,1.3-2,3-2,4.8v54.6c0,3.8,3.1,6.8,6.8,6.8
	S41,258.3,41,254.6z"/>
<path class="st1" d="M143.3,206.8h25.3c4.9,0,8.8,4,8.8,8.8v23.3c0,4.9-4,8.8-8.8,8.8h-18.5v-27.3c0-3.8-3.1-6.8-6.8-6.8
	c-3.8,0-6.8,3.1-6.8,6.8v34.1c0,1.8,0.7,3.5,2,4.8s3,2,4.8,2h25.3c12.4,0,22.5-10.1,22.5-22.5v-23.3c0-12.4-10.1-22.5-22.5-22.5
	h-25.3c-3.8,0-6.8,3.1-6.8,6.8C136.5,203.8,139.5,206.8,143.3,206.8z"/>
<path class="st1" d="M122.8,193.2H88.7c-1.8,0-3.6,0.7-4.8,2c-1.3,1.3-2,3-2,4.8v27.3c0,1.8,0.7,3.5,2,4.8s3,2,4.8,2H116v13.7H88.7
	c-3.8,0-6.8,3.1-6.8,6.8c0,3.8,3.1,6.8,6.8,6.8h34.1c1.8,0,3.5-0.7,4.8-2c1.3-1.3,2-3,2-4.8v-27.3c0-1.8-0.7-3.6-2-4.8
	c-1.3-1.3-3-2-4.8-2H95.5v-13.7h27.3c3.8,0,6.8-3.1,6.8-6.8C129.7,196.2,126.6,193.2,122.8,193.2z"/>
<path class="st0" d="M446.4,152.2h204.7c7.5,0,13.6,6.1,13.6,13.6v348c0,7.5-6.1,13.6-13.6,13.6H398.7c-7.5,0-13.6-6.1-13.6-13.6
	V213.6"/>
<path class="st1" d="M385,206.8c-3.8,0-6.8,3.1-6.8,6.8v300.3c0,11.3,9.2,20.5,20.5,20.5h252.5c11.3,0,20.5-9.2,20.5-20.5v-348
	c0-11.3-9.2-20.5-20.5-20.5H446.5c-3.8,0-6.8,3.1-6.8,6.8c0,3.8,3.1,6.8,6.8,6.8h204.7c3.8,0,6.8,3.1,6.8,6.8v348
	c0,3.8-3.1,6.8-6.8,6.8H398.7c-3.8,0-6.8-3.1-6.8-6.8V213.6C391.8,209.9,388.8,206.8,385,206.8z"/>
<path class="st2" d="M446.4,152.2v61.4H385L446.4,152.2z"/>
<g>
	<path class="st1" d="M380.2,208.8c-2,1.9-2.5,4.9-1.5,7.4c1.1,2.5,3.5,4.2,6.3,4.2h61.4c1.8,0,3.5-0.7,4.8-2s2-3,2-4.8v-61.4
		c0-2.8-1.7-5.3-4.2-6.3c-2.5-1.1-5.5-0.5-7.4,1.5L380.2,208.8l4.8,4.8v-6.8v6.8l4.8,4.8l49.8-49.8v38.1H385v6.8L380.2,208.8z"/>
	<path class="st1" d="M561.1,379.7c-2.8-2.5-7.1-2.3-9.6,0.5c-5.4,6-16.7,11-30,10.9c-13.1,0.1-24.4-4.8-29.8-10.8
		c-2.6-2.8-6.9-2.9-9.6-0.4c-2.8,2.6-2.9,6.9-0.4,9.6c9,9.6,23.5,15.1,39.8,15.1c16.5-0.1,31.1-5.7,40.1-15.4
		C564.1,386.5,563.9,382.2,561.1,379.7z"/>
	<path class="st1" d="M582.9,302.4c7.5,0,13.6,6.1,13.6,13.6s-6.1,13.6-13.6,13.6s-13.6-6.1-13.6-13.6
		C569.3,308.5,575.4,302.4,582.9,302.4z"/>
	<path class="st1" d="M460.1,302.4c7.5,0,13.6,6.1,13.6,13.6s-6.1,13.6-13.6,13.6s-13.7-6.1-13.7-13.6S452.5,302.4,460.1,302.4z"/>
</g>
<path class="st3" d="M460.1,343.3c7.5,0,13.6,6.1,13.6,13.7c0,7.5-6.1,13.6-13.6,13.6s-13.7-6.1-13.7-13.6
	C446.4,349.4,452.5,343.3,460.1,343.3z"/>
<path class="st3" d="M582.9,343.3c7.5,0,13.6,6.1,13.6,13.7c0,7.5-6.1,13.6-13.6,13.6s-13.6-6.1-13.6-13.6
	C569.3,349.4,575.4,343.3,582.9,343.3z"/>
<path class="st5" d="M506.4,265.7l13.6-34.6c1-2.4,1-5.1,0-7.6l-13.6-34.6c-2.4-4.2,0.6-9.4,5.4-9.4h207.6V275H518.7
	C513.8,275.1,504,269.8,506.4,265.7z"/>
<path class="st1" d="M518.7,281.9h200.7c1.8,0,3.5-0.7,4.8-2s2-3,2-4.8v-95.5c0-1.8-0.7-3.6-2-4.8c-1.3-1.3-3-2-4.8-2H511.8
	c-3.7,0-7.2,1.6-9.4,4c-2.3,2.4-3.7,5.6-3.7,9.1c0,2.2,0.6,4.5,1.7,6.5l5.9-3.4l-6.4,2.5l13.6,34.6l0.2,1.3l-0.2,1.3L500,263.2
	l6.3,2.5l-5.9-3.4c-0.8,1.4-1.3,3.1-1.3,4.7c0,2.6,1,4.6,2,6.1c1.1,1.5,2.2,2.6,3.5,3.6c2.5,1.9,5.2,3.2,8,4.2
	C514.6,281.4,516.5,281.9,518.7,281.9v-13.7c0,0.1-1.8-0.3-3.2-1c-1.5-0.6-2.9-1.7-3-2l0,0l-1.4,0.9l1.5-0.7l-0.1-0.2l-1.4,0.9
	l1.5-0.7l-3.2,1.5h3.5c0-0.8-0.2-1.3-0.3-1.5l-3.2,1.5h3.5h-4.1l3.6,2.1c0.3-0.5,0.5-1.3,0.5-2h-4.1l3.6,2.1l0.4-0.9l13.6-34.6
	c0.8-2,1.2-4.2,1.2-6.3s-0.4-4.3-1.2-6.3l-13.6-34.6l-0.4-0.9l-0.5,0.3h0.5l-0.1-0.3l-0.5,0.3h0.5h-0.5l0.4,0.4l0.1-0.4h-0.5
	l0.4,0.4l-0.4-0.4v0.6l0.4-0.2l-0.4-0.4v0.6h200.7v81.9H518.7v6.8V281.9z"/>
<path class="st6" d="M664.8,309.2v-34.1h54.6L664.8,309.2z"/>
<path class="st1" d="M723,280.8c2.6-1.6,3.8-4.7,2.9-7.7c-0.8-2.9-3.5-4.9-6.6-4.9h-54.6c-1.8,0-3.6,0.7-4.8,2c-1.3,1.3-2,3-2,4.8
	v34.1c0,2.5,1.3,4.8,3.5,6s4.8,1.1,6.9-0.2L723,280.8l-3.6-5.8v6.8V275l-3.6-5.8l-44.2,27.6v-15h47.8V275L723,280.8z"/>
<path class="st1" d="M634.3,261.4c3.8,0,6.8-1.8,6.8-4.1v-32.8c0-1.1-0.7-2.1-2-2.9c-1.3-0.8-3-1.2-4.8-1.2h-34.1
	c-1.8,0-3.6,0.4-4.8,1.2c-1.3,0.8-2,1.8-2,2.9v32.8c0,2.3,3.1,4.1,6.8,4.1c3.8,0,6.8-1.8,6.8-4.1v-28.7h20.5v28.7
	C627.5,259.6,630.6,261.4,634.3,261.4z"/>
<path class="st7" d="M435.4,42.3c-12-15.7-33.2-21.2-51.3-13.3c-7.9,3.4-14.9,9.1-20.6,16.7c-5.7-7.6-12.7-13.4-20.6-16.7
	c-18.1-7.9-39.3-2.4-51.3,13.3c-6.1,8-9.4,18.1-9.4,29.1c0,15.8,9.4,33.1,28,51.5c15.1,15,33,27.3,42.3,33.2c6.7,4.3,15.3,4.3,22,0
	c9.3-6,27.2-18.3,42.3-33.2c18.6-18.4,28-35.7,28-51.5C444.8,60.4,441.5,50.4,435.4,42.3z"/>
<path class="st1" d="M293.5,401.5c1.1,13.2,9.2,26.7,22.1,36.8c12.9,10,27.7,14.6,40.7,12.6c3.7-0.6,6.3-4.1,5.7-7.8
	c-0.6-3.7-4.1-6.3-7.8-5.7c-8,1.4-19.8-1.8-30.1-9.9c-10.5-8.1-16.4-19-16.9-27.1c-0.3-3.8-3.6-6.6-7.3-6.3
	C296.1,394.4,293.3,397.7,293.5,401.5z"/>
<path class="st1" d="M424.3,394.1c-3.8-0.3-7,2.5-7.3,6.3c-0.5,8.1-6.4,19-16.9,27.1c-10.3,8.1-22.2,11.3-30.1,9.9
	c-3.7-0.6-7.2,1.9-7.8,5.7c-0.6,3.7,1.9,7.2,5.7,7.8c13,2,27.8-2.6,40.7-12.6c12.9-10.2,21-23.6,22.1-36.8
	C430.8,397.7,428,394.4,424.3,394.1z"/>
<path class="st1" d="M363,431.3c6.6,0,12,5.4,12,12s-5.4,12-12,12s-12-5.4-12-12C351,436.6,356.4,431.3,363,431.3z"/>
<path class="st1" d="M627.5,197.1v28.7H607v-28.7c0-2.3-3.1-4.1-6.8-4.1c-3.8,0-6.8,1.8-6.8,4.1v32.8c0,1.1,0.7,2.1,2,2.9
	c1.3,0.8,3,1.2,4.8,1.2h34.1c1.8,0,3.6-0.4,4.8-1.2c1.3-0.8,2-1.8,2-2.9v-32.8c0-2.3-3.1-4.1-6.8-4.1S627.5,194.9,627.5,197.1z"/>
<path class="st1" d="M550,254.6v-47.8h20.5v13.7h-27.3c-3.8,0-6.8,3.1-6.8,6.8c0,3.8,3.1,6.8,6.8,6.8h34.1c1.8,0,3.5-0.7,4.8-2
	s2-3,2-4.8V200c0-1.8-0.7-3.6-2-4.8c-1.3-1.3-3-2-4.8-2h-34.1c-1.8,0-3.6,0.7-4.8,2c-1.3,1.3-2,3-2,4.8v54.6c0,3.8,3.1,6.8,6.8,6.8
	C547,261.4,550,258.3,550,254.6z"/>
<path class="st1" d="M665.5,254.8V207H686v13.7h-27.3c-3.8,0-6.8,3.1-6.8,6.8c0,3.8,3.1,6.8,6.8,6.8h34.1c1.8,0,3.5-0.7,4.8-2
	s2-3,2-4.8v-27.3c0-1.8-0.7-3.6-2-4.8c-1.3-1.3-3-2-4.8-2h-34.1c-1.8,0-3.6,0.7-4.8,2c-1.3,1.3-2,3-2,4.8v54.6
	c0,3.8,3.1,6.8,6.8,6.8C662.5,261.7,665.5,258.6,665.5,254.8z"/>
</svg>
